<svg xmlns="http://www.w3.org/2000/svg" viewBox="0 0 800 256"><path fill="#fff" d="M153.05 197.31q33.11 8.53 59.01 13.86c28.38 5.85 56.6 3.51 81.59-11.64 5.88-3.57 12.45-8.77 18.54-13.3 15.58-11.59 17.41 6.22 14.4 16.14-3.15 10.34-16.48 20.74-25.39 26.81q-31.03 21.12-68.88 25.19c-16.88 1.82-33.08 1.59-49.62-2.81q-31.76-8.44-62.26-20.74c-6.69-2.7-13.87-6.03-19.32-3.54-7.29 3.33-15.17 7.56-22.14 9.65-12.2 3.66-29.37 6.06-38.58-5.54q-5.73-7.22-4.87-17.64c2.2-26.49 41.04-22.79 58.48-22.12 14.85.56 24.42-6.95 31.77-18.84 13.28-21.51 25.91-52.28 34-71.24C184.7 43.22 241.7-.86 306.48.71q15.85.39 30.14 8.34c16.58 9.23 25.63 25.14 26.31 44.16 1.87 52.35-39.12 88.23-83.92 105.56-12.88 4.99-28.89 7.86-41.73 2.83-29.13-11.41-28.82-46.32-16.02-69.34q11.64-20.95 31.17-33.84c7.95-5.25 22.23-10.62 25.17 3.52 1.66 8-2.93 12.34-9.89 17.51q-4.8 3.57-12.97 12.76c-7.21 8.11-25.66 36.31-7.63 43.17 17.87 6.81 48.71-24.51 58.15-37.38q10.85-14.79 18.92-31.32 4.95-10.12 6.26-17.19c1.88-10.14-8.11-17.57-17.17-19.58-47.08-10.43-91.99 42.83-109.18 80.26-9.8 21.35-18.97 43.07-31.29 63.13q-8.16 13.3-19.86 23.56-.38.33.11.45Zm-68.37 14.23c-5.86-.66-15.01-1.6-20.16.89a1.54 1.48 0 0 0-.69.66c-1.81 3.54 1.18 5.18 4.26 5.12q9.59-.2 16.78-6.03.68-.55-.19-.64Zm472.14-14.84a.7.7 49.7 0 0 1.06.09q9.99-10 17.19-22.21c2.33-3.97 8.46-7.83 13.15-5.15 18.69 10.65-10.61 39.78-19.68 47.28-11.89 9.82-29.96 18.12-45.51 13.75-23.8-6.69-19.66-37.7-14.61-55.48q9.15-32.25 18.14-63.67a1.01 1.01-82.3 0 0-.98-1.29c-8.93.08-20.6 2.52-18.76-11.77.92-7.18 2.21-14.07 11.45-13.83q7.9.2 15.85-.05a.65.64-83.5 0 0 .61-.49q6.77-26.87 13.79-53.6c1.69-6.43 5.87-10.09 12.57-10.06q12.99.06 25.94.03c13.66-.04 17.45 3.94 13.84 17.21q-6.34 23.36-12.5 46.74a.41.39 7.4 0 0 .39.49q6.61.11 13.12.06c6.26-.05 10.51 1.14 10.81 8.04.28 6.4.1 12.12-5.59 16.14-3.2 2.28-19.83 1.08-25.1 1.09a1.63 1.62 8.1 0 0-1.56 1.17c-2.33 8.01-24.76 83.91-23.62 85.51Zm-159.56-25.39c-1.59 15.57 4.27 32.38 23.59 30.01q15.34-1.89 26.54-12.46c4.7-4.44 12.08-14.42 19.68-13.86 8.51.63 9.34 9.12 6.88 16.21q-1.87 5.39-7.37 11.62-25.49 28.86-63.07 31.04c-48.93 2.83-70.1-34.88-60.48-79 5.01-22.99 20.9-44.44 40.22-57.59 26.59-18.09 59.47-28.53 90.78-15.57 13.94 5.77 20.07 16.78 19.13 31.39-1.41 22.09-11.27 35.85-31.54 43.91-21.08 8.38-41.39 11.47-63.81 13.75a.61.61 0 0 0-.55.55ZM438.51 96c-17.19-.88-33.01 38.04-37.03 51.1a.42.42-85 0 0 .45.54c12.15-1.57 23.18-6.51 30.93-16.28 5.8-7.32 12.9-23.92 8.34-33.56q-.81-1.7-2.69-1.8Zm172.82 80.73c.3-49.07 35.18-83.87 79.86-97.38q25.42-7.69 50.95 1.23 20.79 7.27 22.16 29.11.31 4.94-2.75 16.95c-4.49 17.62-17.79 26.65-34.07 32.37q-28.56 10.03-58.84 11.44a.79.79-88.7 0 0-.75.72c-1.13 13.66 2.77 30.39 20.1 30.06q17.5-.33 30.45-12.81c4.34-4.18 8.67-9.48 14.06-12.22 4.48-2.27 9.53-1.43 12.16 2.91 4.11 6.8-1.52 16.53-6.08 21.95q-30.5 36.19-77.84 32.7c-30.03-2.22-49.59-28.08-49.41-57.03Zm94.17-80.46c-15.94 5.34-28.64 36.06-33.27 50.73a.49.48-84.9 0 0 .52.63q33.24-4.54 40.25-37.45c1.12-5.22 1.06-16.79-7.5-13.91Z"/></svg>